<?xml version="1.0" encoding="UTF-8"?>
<svg id="_レイヤー_2" data-name=" レイヤー 2" xmlns="http://www.w3.org/2000/svg" version="1.1" xmlns:xlink="http://www.w3.org/1999/xlink" viewBox="0 0 331.7 182.6">
  <defs>
    <style>
      .cls-1 {
        fill: #000;
      }

      .cls-1, .cls-2 {
        stroke-width: 0px;
      }

      .cls-3 {
        fill: url(#_6_lpi_10_);
      }

      .cls-3, .cls-4, .cls-5, .cls-6 {
        stroke: #000;
        stroke-miterlimit: 10;
      }

      .cls-3, .cls-4, .cls-6 {
        stroke-width: 4px;
      }

      .cls-7 {
        stroke: #231815;
        stroke-width: 1.2px;
      }

      .cls-7, .cls-2 {
        fill: none;
      }

      .cls-8 {
        isolation: isolate;
      }

      .cls-4 {
        fill: url(#_6_lpi_10_-2);
      }

      .cls-5 {
        fill: #aaf2d1;
        stroke-width: 2px;
      }

      .cls-6 {
        fill: #f7f7f7;
      }
    </style>
    <pattern id="_6_lpi_10_" data-name=" 6 lpi 10 " x="0" y="0" width="72" height="72" patternTransform="translate(-9895.2 -1471.1) rotate(-40.6) scale(.7) skewX(8.7)" patternUnits="userSpaceOnUse" viewBox="0 0 72 72">
      <g>
        <rect class="cls-2" width="72" height="72"/>
        <g>
          <rect class="cls-2" width="72" height="72"/>
          <g>
            <rect class="cls-2" width="72" height="72"/>
            <g>
              <line class="cls-7" x1="71.8" y1="66" x2="144.2" y2="66"/>
              <line class="cls-7" x1="71.8" y1="42" x2="144.2" y2="42"/>
              <line class="cls-7" x1="71.8" y1="18" x2="144.2" y2="18"/>
              <line class="cls-7" x1="71.8" y1="54" x2="144.2" y2="54"/>
              <line class="cls-7" x1="71.8" y1="30" x2="144.2" y2="30"/>
              <line class="cls-7" x1="71.8" y1="6" x2="144.2" y2="6"/>
            </g>
            <g>
              <line class="cls-7" x1="-.2" y1="66" x2="72.2" y2="66"/>
              <line class="cls-7" x1="-.2" y1="42" x2="72.2" y2="42"/>
              <line class="cls-7" x1="-.2" y1="18" x2="72.2" y2="18"/>
              <line class="cls-7" x1="-.2" y1="54" x2="72.2" y2="54"/>
              <line class="cls-7" x1="-.2" y1="30" x2="72.2" y2="30"/>
              <line class="cls-7" x1="-.2" y1="6" x2="72.2" y2="6"/>
            </g>
            <g>
              <line class="cls-7" x1="-72.2" y1="66" x2=".2" y2="66"/>
              <line class="cls-7" x1="-72.2" y1="42" x2=".2" y2="42"/>
              <line class="cls-7" x1="-72.2" y1="18" x2=".2" y2="18"/>
              <line class="cls-7" x1="-72.2" y1="54" x2=".2" y2="54"/>
              <line class="cls-7" x1="-72.2" y1="30" x2=".2" y2="30"/>
              <line class="cls-7" x1="-72.2" y1="6" x2=".2" y2="6"/>
            </g>
          </g>
        </g>
      </g>
    </pattern>
    <pattern id="_6_lpi_10_-2" data-name=" 6 lpi 10 -2" x="0" y="0" width="72" height="72" patternTransform="translate(-10.3 -1787) rotate(-139.4) scale(.7 -.7) skewX(8.7)" patternUnits="userSpaceOnUse" viewBox="0 0 72 72">
      <g>
        <rect class="cls-2" width="72" height="72"/>
        <g>
          <rect class="cls-2" width="72" height="72"/>
          <g>
            <rect class="cls-2" width="72" height="72"/>
            <g>
              <line class="cls-7" x1="71.8" y1="66" x2="144.2" y2="66"/>
              <line class="cls-7" x1="71.8" y1="42" x2="144.2" y2="42"/>
              <line class="cls-7" x1="71.8" y1="18" x2="144.2" y2="18"/>
              <line class="cls-7" x1="71.8" y1="54" x2="144.2" y2="54"/>
              <line class="cls-7" x1="71.8" y1="30" x2="144.2" y2="30"/>
              <line class="cls-7" x1="71.8" y1="6" x2="144.2" y2="6"/>
            </g>
            <g>
              <line class="cls-7" x1="-.2" y1="66" x2="72.2" y2="66"/>
              <line class="cls-7" x1="-.2" y1="42" x2="72.2" y2="42"/>
              <line class="cls-7" x1="-.2" y1="18" x2="72.2" y2="18"/>
              <line class="cls-7" x1="-.2" y1="54" x2="72.2" y2="54"/>
              <line class="cls-7" x1="-.2" y1="30" x2="72.2" y2="30"/>
              <line class="cls-7" x1="-.2" y1="6" x2="72.2" y2="6"/>
            </g>
            <g>
              <line class="cls-7" x1="-72.2" y1="66" x2=".2" y2="66"/>
              <line class="cls-7" x1="-72.2" y1="42" x2=".2" y2="42"/>
              <line class="cls-7" x1="-72.2" y1="18" x2=".2" y2="18"/>
              <line class="cls-7" x1="-72.2" y1="54" x2=".2" y2="54"/>
              <line class="cls-7" x1="-72.2" y1="30" x2=".2" y2="30"/>
              <line class="cls-7" x1="-72.2" y1="6" x2=".2" y2="6"/>
            </g>
          </g>
        </g>
      </g>
    </pattern>
  </defs>
  <g id="_レイヤー_1-2" data-name=" レイヤー 1-2">
    <g>
      <g>
        <g>
          <ellipse class="cls-6" cx="165.9" cy="91.3" rx="163.9" ry="89.3"/>
          <ellipse class="cls-3" cx="165.9" cy="91.3" rx="163.9" ry="89.3"/>
          <ellipse class="cls-4" cx="165.9" cy="91.3" rx="163.9" ry="89.3"/>
        </g>
        <ellipse class="cls-5" cx="165.9" cy="91.3" rx="150.4" ry="77.6"/>
      </g>
      <g>
        <circle class="cls-1" cx="35.5" cy="91.5" r="9"/>
        <circle class="cls-1" cx="296.2" cy="91.1" r="9"/>
      </g>
      <g>
        <path class="cls-1" d="M52.9,60.2c-1.2-.3-2.3-1.3-3.2-3-1.9-3.2-1.2-5.7,2-7.5.5-.3,1-.5,1.5-.6.5-.2.9-.2,1.3-.2s.5,0,.5.2v.6c0,.3,0,.4-.2.5h-.5c-.3,0-.6,0-1,.2s-.8.2-1.2.5c-1.2.7-1.9,1.5-2.1,2.4-.2.9,0,2,.8,3.4.8,1.3,1.6,2.1,2.5,2.4s1.9,0,3-.5c.5-.3.8-.5,1.1-.8s.5-.6.8-1c0-.2.2-.2.2-.3,0,0,.2,0,.5,0s.4.2.4.3,0,.4-.2.7-.5.6-.9,1c-.4.3-.8.7-1.3.9-1.6.9-2.9,1.2-4.1.8h.1Z"/>
        <path class="cls-1" d="M62.3,55.8c-.6,0-1.1-.5-1.5-1.2s-.4-1.4-.2-2c.3-.6.7-1.1,1.3-1.6s1.4-.9,2.4-1.4c0-.3-.2-.4-.3-.7-.2-.3-.4-.6-.8-.7-.4,0-.8,0-1.4.3-.4.2-.8.5-1.1.7l-.7.7-.3.3h-.5c-.2,0-.3-.2-.4-.3,0,0,0-.3.2-.6s.5-.6.9-.9.8-.6,1.3-.8c.9-.5,1.8-.6,2.5-.5.7,0,1.2.5,1.6,1.2.6,1.2.9,1.9,1.5,3.1.3.6.6,1,.7,1.3.2.2.3.4.3.4,0,0,0,.2-.2.4s-.3.2-.5.3h-.4c0,0-.3-.2-.4-.4s-.2-.2-.2-.3c-.3,1-.9,1.8-1.9,2.3-.7.4-1.4.5-2.1.4h.2ZM65,53.5c.3-.3.5-.8.7-1.2-.3-.7-.5-1-.8-1.6-.7.4-1.3.7-1.8,1-.4.3-.8.6-1,1s-.2.8,0,1.2.4.6.8.7.7,0,1.1-.2c.5-.2.8-.5,1.1-.9h0Z"/>
        <path class="cls-1" d="M70.9,51.8c-.9-2-1.4-3-2.3-4.9-.3-.6-.5-1-.7-1.3s-.3-.4-.3-.4c0,0,0-.2.2-.4s.3-.2.5-.3h.4c0,0,.2.2.3.4,0,0,.2.2.2.3.2-1,.6-1.6,1.3-1.9.3,0,.5-.2.7,0,.2,0,.3,0,.4.3,0,.2,0,.3,0,.5v.4h-.3c-.2,0-.4,0-.6.2-.2,0-.4.3-.6.5s-.3.4-.3.7v.3c1,2.1,1.4,3.1,2.4,5.2,0,.2,0,.4-.4.6h0c-.4.2-.6.2-.7,0h-.3Z"/>
        <path class="cls-1" d="M84.6,42.7c-1.8-1.4-2.7-2.1-4.5-3.4-.2,0-.4-.3-.6-.5h0c0,.2.2.4.3.8,1.1,2.8,1.7,4.2,2.8,7,0,.2,0,.4-.5.6h0c-.4.2-.6,0-.7,0-1.6-3.8-2.3-5.7-3.9-9.5,0-.2,0-.4.5-.6.2,0,.3,0,.6-.2.3,0,.6,0,.8,0,1.9,1.4,2.9,2.2,4.8,3.6.3.2.6.5.8.8,0-.3,0-.7,0-1.1.4-2.3.6-3.5,1.1-5.8,0-.2.2-.4.6-.5.2,0,.3,0,.5-.2.4-.2.7,0,.8,0,1.4,3.9,2.1,5.8,3.4,9.7,0,.2,0,.4-.5.5h0c-.4,0-.6,0-.7,0-1-2.8-1.5-4.2-2.6-7,0-.4-.2-.6-.3-.8h0c0,.3,0,.6,0,.8-.4,2.2-.7,3.3-1.1,5.4,0,.2,0,.3-.3.3s-.4,0-.6.2h-.6Z"/>
        <path class="cls-1" d="M94.8,42c-.6-.2-1-.7-1.3-1.4-.3-.8-.2-1.4,0-2,.4-.5.9-1,1.6-1.3s1.5-.7,2.6-1c0-.3,0-.4-.2-.7,0-.4-.3-.6-.7-.8-.3-.2-.8,0-1.4,0-.5.2-.8.3-1.2.5-.3.2-.6.4-.8.6-.2.2-.3.3-.3.3,0,0-.2,0-.4-.2s-.3-.3-.3-.4,0-.3.3-.5c.2-.2.6-.5,1-.7.4-.3.9-.5,1.4-.6,1-.3,1.8-.3,2.5,0s1.1.7,1.3,1.5c.4,1.3.6,2,1,3.3.2.7.4,1.1.5,1.4.2.3.2.4.2.4,0,0,0,.2-.2.3s-.3.2-.5.2-.3,0-.4,0-.2-.3-.3-.4c0-.2,0-.3-.2-.3-.5,1-1.2,1.6-2.2,1.9-.8.2-1.5.3-2.1,0h0ZM97.8,40.1c.3-.3.6-.7.9-1.1-.2-.7-.3-1-.6-1.8-.8.2-1.4.5-1.9.7s-.9.5-1.2.8c-.3.3-.4.8-.2,1.2,0,.4.3.7.6.8s.6,0,1.1,0c.5-.2.9-.4,1.2-.7h0Z"/>
        <path class="cls-1" d="M101.1,30.1c0-.3-.2-.5-.2-.8s.2-.4.7-.6c.5-.1.7,0,.8.2,0,.3,0,.5.2.8,0,.2-.2.4-.7.6-.5.1-.7,0-.8-.2ZM103.8,39.3c-.8-2.9-1.2-4.3-2.1-7.2,0-.2,0-.4.5-.5h0c.4-.1.7,0,.7.1.8,2.9,1.2,4.3,2.1,7.2,0,.2,0,.4-.5.5h0c-.4,0-.6,0-.7-.2h0Z"/>
        <path class="cls-1" d="M108.6,38c-.6-2.1-.8-3.2-1.4-5.3-.2-.7-.3-1.1-.5-1.4s-.2-.4-.2-.5,0-.2.2-.3c.2-.1.4-.2.5-.2.2,0,.3,0,.4.1s.2.3.3.4,0,.2.2.3c.2-.4.6-.8.9-1.1s.8-.5,1.2-.6c.8-.2,1.5-.1,2.1.2.6.3.9.9,1.1,1.6.5,2.1.7,3.2,1.2,5.3,0,.2,0,.4-.5.5h0c-.4,0-.6,0-.7-.2-.5-2-.7-3.1-1.2-5.1,0-.5-.3-.8-.7-1-.3-.2-.8-.2-1.3,0-.4,0-.7.3-1,.6-.3.3-.6.6-.7,1,.6,2.2.9,3.3,1.4,5.5,0,.2,0,.4-.5.5h0c-.4,0-.6,0-.7-.2h-.1Z"/>
        <path class="cls-1" d="M118.9,35.5c-.5-.2-.8-.7-1-1.5-.4-1.9-.6-2.9-1.1-4.9-.3,0-.5.1-.8.2h-.3s0-.2-.2-.3v-.6c0-.1,0-.1.2-.2.3,0,.5-.1.8-.2,0-.7,0-1-.2-1.6,0-.2,0-.4.4-.5h.2c.3,0,.5,0,.6.2,0,.6.2,1,.3,1.6.5-.1.8-.2,1.3-.3h.3c.1,0,0,.2,0,.3v.6c0,.1,0,.1-.2.2-.5.1-.8.2-1.3.3.4,1.9.6,2.8,1,4.7,0,.4.2.7.4.8s.4.2.7,0c.2,0,.3,0,.4,0h.2s.2,0,.3.2.2.3.2.4c0,.3-.3.5-1,.7-.5,0-1,0-1.5-.2h.2Z"/>
        <path class="cls-1" d="M124.4,33.8c-.8-.5-1.3-1.5-1.5-2.9-.3-1.4-.2-2.4.3-3.3.5-.8,1.4-1.4,2.6-1.6,1.1-.2,2,0,2.7.6s1.1,1.5,1.3,2.9c0,0,0,.2-.1.4s-.2.3-.3.3c-2,.3-3,.5-5,.9.2.8.6,1.4,1,1.7.5.3,1.1.4,1.8.3.4,0,.8-.2,1.1-.4s.6-.3.7-.5c.2,0,.3-.2.3-.2.1,0,.2,0,.4.2s.2.3.3.4c0,0,0,.3-.3.5-.2.2-.6.4-1,.6s-.9.3-1.3.4c-1.3.2-2.3,0-3.1-.5h0v.2ZM128.3,29.3c-.3-1.6-1.1-2.3-2.3-2.1-1.4.2-2,1.2-1.8,2.8,1.7-.3,2.5-.5,4.1-.7Z"/>
        <path class="cls-1" d="M133.2,33c-.3-2.2-.5-3.2-.8-5.4-.1-.7-.2-1.2-.3-1.4s-.2-.4-.2-.5,0-.2.3-.3c.2,0,.4-.1.6-.2.1,0,.3,0,.4.2s.2.3.2.5.1.3.1.3c.3-.4.6-.8,1.1-1,.4-.3.9-.4,1.3-.5.8-.1,1.5,0,2,.4s.8,1,.9,1.8c.3,2.1.4,3.2.6,5.4,0,.2-.2.4-.6.4h0c-.4,0-.6,0-.7-.3-.3-2.1-.4-3.1-.6-5.2,0-.5-.2-.8-.6-1-.3-.2-.7-.3-1.3-.2-.4,0-.7.2-1.1.4s-.6.5-.8.9c.3,2.3.5,3.4.8,5.6,0,.2-.2.4-.6.4h0c-.4,0-.6,0-.7-.2h0Z"/>
        <path class="cls-1" d="M142.9,31.6c-.5-.3-.8-.9-.9-1.7,0-.8.1-1.5.6-1.9.5-.5,1.1-.8,1.8-1s1.6-.3,2.7-.4v-.7c0-.4-.2-.7-.5-.9-.3-.2-.8-.3-1.4-.2-.5,0-.9.1-1.2.3-.4.1-.6.3-.9.4s-.4.2-.4.2c-.1,0-.2,0-.4-.3-.2-.2-.2-.3-.2-.4s.1-.3.4-.5c.3-.2.6-.4,1.1-.5s1-.3,1.5-.3c1,0,1.8,0,2.4.4.6.4.9,1,1,1.7.1,1.4.2,2.1.3,3.5,0,.7.1,1.2.2,1.5,0,.3.1.5.1.5,0,.1,0,.2-.3.3-.2,0-.4.1-.5.1s-.3,0-.3-.2-.1-.3-.2-.5,0-.3-.1-.3c-.6.8-1.5,1.3-2.5,1.4-.8,0-1.5,0-2-.4h-.3ZM146.2,30.4c.4-.2.7-.5,1.1-.9,0-.7,0-1.1-.1-1.8-.8,0-1.4.2-1.9.3-.5.1-.9.3-1.3.6-.4.3-.5.7-.5,1.2s.2.7.4.9c.2.2.6.3,1,.2.5,0,.9-.2,1.3-.4h0Z"/>
        <path class="cls-1" d="M152.1,31c-.1-2.2-.2-3.3-.3-5.4,0-.7-.1-1.2-.2-1.5,0-.3-.1-.5-.1-.5,0-.1,0-.2.3-.3.2,0,.4-.1.6-.1s.3,0,.4.2.1.3.2.5,0,.3,0,.3c.3-.4.7-.7,1.1-.9.4-.2.9-.4,1.3-.4.8,0,1.5.2,2,.6s.8,1,.8,1.8c0,2.2.1,3.2.2,5.4,0,.2-.2.4-.6.4h0c-.4,0-.6,0-.6-.3,0-2.1-.1-3.2-.2-5.3,0-.5-.2-.8-.5-1.1-.3-.2-.7-.4-1.2-.3-.4,0-.7.1-1.1.4-.4.2-.7.5-.9.8.1,2.3.2,3.4.3,5.7,0,.2-.2.4-.6.4h0c-.4,0-.6,0-.6-.3h-.3Z"/>
        <path class="cls-1" d="M162.1,30c-.6-.6-1-1.7-1-3.2s.3-2.5,1-3.2c.7-.6,1.6-1,2.8-1s1.2,0,1.7.2.8.3.8.5,0,.3-.2.5c-.1.2-.2.3-.3.3s0,0,0,0h-.1c-.6-.2-1.2-.4-1.8-.4-1.6,0-2.3,1-2.3,3s.2,1.9.6,2.4,1,.7,1.9.7,1.2-.1,1.8-.4h.2c.1,0,.2.1.3.3.1.2.2.4.2.5s-.1.2-.3.4c-.2.1-.5.2-.9.3s-.8.1-1.2.1c-1.3,0-2.3-.3-2.9-1h-.3Z"/>
        <path class="cls-1" d="M170.6,30c-.6-.7-.9-1.7-.9-3.1s.4-2.4,1-3.1c.7-.7,1.6-1,2.9-1s1.9.4,2.5,1.1.8,1.7.7,3.1c0,0,0,.2-.2.4-.1.2-.2.2-.4.2-2,0-3-.1-5.1-.2,0,.9.3,1.5.6,1.9.4.4,1,.6,1.7.7.4,0,.8,0,1.2-.1s.6-.2.8-.3c.2-.1.3-.1.4-.1s.2.1.3.3c.1.2.2.4.2.5s-.1.3-.4.4c-.3.1-.6.3-1.1.4s-.9.1-1.4.1c-1.3,0-2.3-.4-2.9-1.1h0ZM175.4,26.4c0-1.6-.6-2.5-1.9-2.5s-2.2.8-2.3,2.4c1.7,0,2.5,0,4.2.1h0Z"/>
        <path class="cls-1" d="M184.9,30.5c-.8-1-1.1-2.4-.9-4.3.3-3.7,2.2-5.4,5.8-5,.5,0,1.1.2,1.5.3.5.2.9.3,1.1.5.2.2.4.3.4.5s-.1.3-.3.5-.3.3-.4.3c0,0-.2,0-.4-.2s-.5-.3-.9-.4c-.3-.1-.8-.2-1.2-.3-1.3-.1-2.3.1-3,.8s-1.1,1.7-1.2,3.2c-.1,1.5,0,2.6.6,3.4s1.4,1.2,2.7,1.3h1.3c.4,0,.8-.2,1.1-.3.2,0,.3-.1.3-.1,0,0,.2.1.3.4s.2.4.1.5c0,.1-.2.3-.6.5-.3,0-.8.2-1.2.3h-1.6c-1.7-.2-3-.7-3.7-1.7h0l.2-.2Z"/>
        <path class="cls-1" d="M195.1,32.2c-.4-.5-.6-1.1-.4-1.9.3-2.1.4-3.2.7-5.4,0-.2.3-.3.7-.2h0c.4,0,.6.2.6.4-.3,2.1-.4,3.1-.7,5.2,0,.5,0,.9.3,1.2s.6.5,1.1.6c.4,0,.7,0,1.1-.1s.7-.4,1-.6c.3-2.2.5-3.4.9-5.6,0-.2.3-.3.7-.2h0c.4,0,.6.2.6.4-.3,2.2-.5,3.3-.9,5.5-.1.7-.1,1.2-.1,1.5v.5c0,0-.1.2-.3.2h-.6c-.1,0-.2,0-.3-.3v-.8c-.4.3-.8.5-1.3.7-.5,0-.9.2-1.3,0-.8,0-1.4-.4-1.8-.9h0v-.3Z"/>
        <path class="cls-1" d="M204.5,34.2c-.4-.2-.6-.4-.8-.5s-.3-.3-.3-.5c0,0,.1-.2.3-.4s.3-.3.4-.2c0,0,.1,0,.3.2s.4.3.6.4.5.2.9.3c1,.2,1.6,0,1.8-1,0-.3,0-.6-.2-.9s-.6-.5-1.1-.8c-.8-.4-1.3-.8-1.6-1.2-.3-.4-.3-.9-.2-1.5,0-.4.2-.8.5-1.1s.6-.5,1.1-.6c.4-.1.9-.1,1.4,0,.6.1,1,.3,1.4.5s.6.4.6.6-.1.3-.3.5-.3.3-.4.2c0,0-.2-.1-.4-.3-.2-.2-.6-.3-1-.4h-1.1c-.3.1-.5.3-.5.6s0,.6.1.9.4.5.9.7c.6.3,1.1.6,1.4.9.3.3.5.6.6.9s.1.7,0,1.2c0,.5-.3.8-.6,1.1s-.7.5-1.2.7c-.5,0-.9.2-1.4,0-.4,0-.9-.2-1.2-.4h0Z"/>
        <path class="cls-1" d="M212.2,35.4c-.3-.4-.4-1-.3-1.8.4-1.9.6-2.9,1-4.9-.3,0-.5-.1-.8-.2-.1,0-.2,0-.2-.2v-.6c0-.2,0-.3.1-.3h.3c.3,0,.5.1.8.2.2-.6.3-.9.5-1.6,0-.2.3-.3.6-.2h.2c.3,0,.5.2.4.4-.1.6-.2,1-.4,1.6.5.1.8.2,1.4.3.1,0,.2,0,.2.2v.6c0,.2,0,.3-.1.3h-.3c-.5-.1-.8-.2-1.3-.3-.4,1.9-.6,2.8-1,4.7v.9c.1.2.3.3.6.4h.6s.1,0,.2.3,0,.3,0,.5c0,.3-.5.4-1.2.2-.5,0-.9-.4-1.3-.8h0v.3Z"/>
        <path class="cls-1" d="M217.9,36.1c-.4-.8-.5-1.9-.2-3.2s.9-2.2,1.7-2.8,1.8-.7,3-.4c1.2.3,2,.9,2.4,1.7.4.9.5,2,.1,3.3s-.9,2.2-1.7,2.7-1.7.6-2.9.3-2-.8-2.4-1.7h0ZM222.4,36.4c.5-.4.9-1.1,1.1-2.1.3-1,.3-1.8,0-2.4-.2-.6-.8-1-1.5-1.2-.8-.2-1.4,0-1.9.3-.5.4-.8,1.1-1.1,2.1-.2,1-.2,1.8,0,2.4.2.6.7.9,1.5,1.1.8.2,1.4,0,1.9-.3h0Z"/>
        <path class="cls-1" d="M239,35.1c.4.5.4,1.2.1,2.1-.7,2-1,3.1-1.7,5.1,0,.2-.3.3-.7,0h0c-.4,0-.6-.3-.5-.5.7-2,1-3,1.7-5,.1-.4.1-.8,0-1.2s-.5-.6-1-.8c-.7-.2-1.4,0-2.2.4v.3c-.6,2-1,3.1-1.6,5.1,0,.2-.3.3-.7,0h0c-.4,0-.6-.3-.5-.5.6-2,.9-3,1.6-5,.1-.5.1-.8,0-1.2-.2-.3-.5-.6-1-.7-.3,0-.7,0-1,0s-.6.2-.9.3c-.2,0-.4.2-.4.2-.6,2.2-1,3.3-1.6,5.5,0,.2-.3.3-.7.2h0c-.4,0-.6-.3-.5-.5.6-2.1.9-3.2,1.5-5.2.2-.7.3-1.1.3-1.4v-.5c0-.1.2-.2.4-.2h.6c.1,0,.2.1.3.3v.8c.4-.2.8-.4,1.3-.5s1,0,1.4,0c.5,0,.9.4,1.2.7s.6.7.6,1.2c.4-.2.9-.4,1.4-.5s1,0,1.5,0c.7.2,1.2.6,1.6,1.1h0l-.5.2Z"/>
        <path class="cls-1" d="M244.9,45.1c1.4-3.8,2.1-5.7,3.6-9.5,0-.2.1-.2.2-.3s.2,0,.4,0c1.3.5,1.9.7,3.2,1.2.9.4,1.6.9,2.2,1.6.5.7.6,1.6.1,2.7-.3.8-.8,1.3-1.4,1.6s-1.1.4-1.7.3-1-.2-1.4-.3c-.9-.4-1.4-.6-2.4-.9-.6,1.6-.9,2.4-1.6,4,0,.2-.3.2-.7,0h-.1c-.4-.2-.6-.3-.5-.5h0ZM250.6,41.4c.4.2.9.2,1.4,0s.9-.5,1.2-1.2c.3-.6.2-1.2,0-1.6-.3-.4-.8-.8-1.3-1-.9-.3-1.3-.5-2.2-.9-.6,1.5-.8,2.2-1.4,3.6,1,.4,1.4.6,2.4.9h0v.2Z"/>
        <path class="cls-1" d="M254.4,48.7c-.3-.6-.3-1.2,0-1.9.3-.8.8-1.2,1.4-1.4.6-.2,1.3-.2,2.1,0s1.6.5,2.6,1c.1-.3.2-.4.3-.7.2-.3.2-.7,0-1s-.5-.7-1.1-.9c-.5-.2-.9-.3-1.2-.4s-.7,0-1,0h-.4c-.1,0-.2-.2-.2-.4v-.5c0,0,.2-.2.6-.2s.7,0,1.2,0c.5,0,1,.2,1.5.5,1,.4,1.6,1,1.9,1.6s.4,1.3,0,2c-.6,1.3-.9,1.9-1.5,3.2-.3.6-.5,1.1-.5,1.4s-.1.5-.1.5c0,0-.2.2-.4,0-.2,0-.4,0-.5-.2-.1,0-.2-.2-.2-.4v-.8c-1,.4-2,.4-2.9,0-.8-.3-1.3-.8-1.6-1.3h0v-.3ZM257.8,49.3c.4,0,.9,0,1.4-.2.3-.7.5-1,.8-1.7-.8-.3-1.4-.6-1.9-.7-.5-.2-1-.2-1.4-.2s-.8.3-1,.8c-.2.4-.2.7,0,1s.4.5.8.7c.5.2.9.3,1.4.3h0Z"/>
        <path class="cls-1" d="M267.1,44.1c.1-.3.2-.5.4-.8.1-.2.4-.2.9,0s.6.4.5.7-.2.5-.4.8c-.1.2-.4.2-.9,0s-.6-.4-.5-.7h0ZM263,52.9c1.3-2.7,2-4.1,3.3-6.8.1-.2.4-.2.8,0h0c.4.2.5.4.5.6-1.3,2.7-2,4-3.3,6.8-.1.2-.4.2-.7,0h0c-.4-.2-.5-.4-.4-.6h-.2Z"/>
        <path class="cls-1" d="M267.4,55.1c1-1.9,1.5-2.9,2.5-4.9.3-.6.5-1.1.6-1.3,0-.3.1-.5.1-.5,0,0,.2,0,.4,0,.2,0,.4,0,.6.2.1,0,.2.2.2.4v.8c.5-.2,1-.2,1.5-.2s1,.2,1.4.4c.8.4,1.2.9,1.5,1.5.2.6.1,1.3-.2,2-1,1.9-1.6,2.8-2.6,4.7-.1.2-.4.2-.7,0h0c-.4-.2-.5-.4-.4-.6,1-1.9,1.5-2.8,2.5-4.6.2-.4.3-.8.1-1.2-.1-.4-.4-.7-.9-1-.3-.2-.7-.3-1.1-.3s-.8,0-1.2.2c-1,2-1.6,3-2.6,5-.1.2-.4.2-.7,0h0c-.4-.2-.5-.4-.4-.6h-.6Z"/>
        <path class="cls-1" d="M277,60.2c-.2-.5-.1-1.1.3-1.8,1-1.7,1.5-2.6,2.5-4.3-.3-.2-.4-.2-.7-.4-.1,0-.1,0-.2-.2,0,0,0-.2.1-.3v-.2c0,0,.2-.2.2-.3s.2,0,.3,0c.3.2.4.2.7.4.4-.5.6-.8,1-1.3.1-.2.4-.2.6,0h.1c.3.2.4.3.3.5-.3.6-.5.8-.8,1.4.5.3.7.4,1.2.7.1,0,.2,0,.2.2,0,0,0,.2-.1.3v.2c0,0-.2.2-.2.3s-.2,0-.3,0c-.5-.3-.7-.4-1.2-.7-1,1.7-1.5,2.5-2.4,4.2-.2.4-.3.7-.2.9,0,.2.2.4.4.5.2,0,.3.2.4.2h.2s.1.2,0,.4c0,.2,0,.3-.1.4-.2.3-.6.2-1.3-.2-.5-.3-.8-.7-1-1.1h0v.2Z"/>
      </g>
      <g>
        <g class="cls-8">
          <g class="cls-8">
            <g class="cls-8">
              <path class="cls-1" d="M116.7,63.6l12.2,3.9-7.8,16.9c-4.6-3.8-12.2-8.5-22.2-8.5s-16.4,6.3-16.4,14.2,7,14.9,17.1,14.9,10.7-1.4,13.9-2.7l-.3-7.3-13,1v-9.7c5.9.3,10.1.5,15.2.5s10.3-.3,15.8-.5v9.7l-6.3-.6v11.4c-3.7,2.6-14.2,7-26.1,7-17.6,0-30.7-7.6-30.7-23.7s13.3-23.1,30.7-23.1,13.5,2.1,16.2,3.2l1.6-6.6Z"/>
            </g>
          </g>
        </g>
        <g class="cls-8">
          <g class="cls-8">
            <g class="cls-8">
              <path class="cls-1" d="M141.8,77l-1.2-11c7.2-1.1,15.8-2.2,31.1-2.2s23.8,5.9,23.8,12.8-4.2,9.3-9.3,10.6c8.8,1.4,11.7,6.8,11.7,11.7,0,9.6-8.9,13.6-21.9,13.6s-14.4-.5-19.6-.5-9.5.3-14.8.5v-10.4l9.3.9-.9-28.2-8.2,2.3ZM162.1,103c2.6.5,6.4,1,9.5,1,8.7,0,13.2-2.7,13.2-6.4s-3.4-5-13.4-5h-9l-.2,10.5ZM170.3,84.3c9.2,0,11.5-2,11.5-5.5s-3.2-5.6-9.9-5.6-7.3.2-9.4.5l-.2,10.5h8Z"/>
            </g>
          </g>
        </g>
        <g class="cls-8">
          <g class="cls-8">
            <g class="cls-8">
              <path class="cls-1" d="M258,111.7c-9.1-.3-13.8-.5-19.2-.5s-9.9.2-19.2.5v-9.7l13.7,1-1.1-28.3-13.1,1.3v10.6h-10l1.1-19.7c9.8.4,19.3.6,28.8.6s19.1-.1,28.6-.6l1.1,19.7h-10v-10.6l-13.3-1.3-.6,28.3,13.2-1v9.7Z"/>
            </g>
          </g>
        </g>
      </g>
      <g class="cls-8">
        <g class="cls-8">
          <g class="cls-8">
            <path class="cls-1" d="M119.9,143.4c0,4-2.7,6-8.2,6-2.1,0-3.9-.3-5.2-.9-1.5-.7-2.7-1.9-3.5-3.6l4.8-2.2c.8,1.8,2.1,2.7,3.9,2.7,1.9,0,2.9-.5,2.9-1.6,0-.6-1-1.1-2.9-1.3-2.8-.4-4.6-.7-5.5-1.1-2-.8-3-2.2-3-4.2,0-1.8.7-3.3,2.2-4.3,1.5-1.1,3.6-1.6,6.3-1.6,3.9,0,6.7,1.3,8.2,4l-4.6,2.1c-.9-1.5-2.2-2.2-4-2.2-1.8,0-2.6.4-2.6,1.3,0,.6,1,1.1,2.9,1.3,2.7.3,4.6.7,5.5,1.1,2,.8,3,2.3,3,4.4Z"/>
          </g>
        </g>
        <g class="cls-8">
          <g class="cls-8">
            <path class="cls-1" d="M140.3,141.6h-12.6c.4,2.2,1.7,3.3,3.7,3.3,1.8,0,3.1-.7,3.8-2.2l4.9,1.7c-1.3,3.3-4.2,5-8.6,5-2.7,0-4.8-.7-6.4-2.2-1.7-1.6-2.6-3.9-2.6-6.8,0-2.9.8-5.2,2.5-6.8,1.6-1.5,3.7-2.3,6.3-2.3,6,0,9,3.3,9,10.1v.3ZM134.9,138.1c-.3-1.8-1.5-2.7-3.7-2.7-1.7,0-2.8.9-3.3,2.7h7Z"/>
          </g>
        </g>
        <g class="cls-8">
          <g class="cls-8">
            <path class="cls-1" d="M156.9,131.6l-1.5,5.2c-.8-.5-1.6-.8-2.6-.8-.8,0-1.6.4-2.3,1.1-.7.6-1.1,1.3-1.3,2v9.7c0,0-5.3,0-5.3,0v-17.5c0,0,5.2,0,5.2,0v1.7c1.2-1.3,2.8-2,4.8-2,1.1,0,2.1.2,3,.6Z"/>
          </g>
        </g>
        <g class="cls-8">
          <g class="cls-8">
            <path class="cls-1" d="M177.7,131.2l-6.6,17.6h-5.6s-6.8-17.5-6.8-17.5h5.8s3.8,11.3,3.8,11.3l3.7-11.4h5.8Z"/>
          </g>
        </g>
        <g class="cls-8">
          <g class="cls-8">
            <path class="cls-1" d="M188.1,148.6h-5.4s0-13,0-13h-3.2s0-4.5,0-4.5h8.6s0,17.5,0,17.5ZM188.3,129h-5.9s0-5.4,0-5.4h5.9s0,5.4,0,5.4Z"/>
          </g>
        </g>
        <g class="cls-8">
          <g class="cls-8">
            <path class="cls-1" d="M208.2,143.3c-.9,3.8-3.5,5.7-7.9,5.7-2.6,0-4.7-.7-6.2-2.2-1.6-1.6-2.4-3.8-2.4-6.8,0-2.9.8-5.2,2.4-6.8,1.5-1.5,3.6-2.3,6.2-2.3,4.5,0,7.1,1.8,7.9,5.6l-5,1.4c-.3-1.6-1.3-2.4-2.8-2.4-2.2,0-3.3,1.5-3.2,4.5,0,2.9,1.1,4.4,3.3,4.4,1.5,0,2.5-.8,3-2.5l5,1.5Z"/>
          </g>
        </g>
        <g class="cls-8">
          <g class="cls-8">
            <path class="cls-1" d="M228.4,141.1h-12.6c.4,2.2,1.7,3.3,3.7,3.3,1.8,0,3.1-.7,3.8-2.2l4.9,1.7c-1.3,3.3-4.2,5-8.6,5-2.7,0-4.8-.7-6.4-2.2-1.7-1.6-2.6-3.9-2.6-6.8,0-2.9.8-5.2,2.5-6.8,1.6-1.5,3.7-2.3,6.3-2.3,6,0,9,3.3,9,10.1v.3ZM223,137.6c-.3-1.8-1.5-2.7-3.7-2.7-1.7,0-2.8.9-3.3,2.7h7Z"/>
          </g>
        </g>
      </g>
    </g>
  </g>
</svg>